<?xml version="1.0" encoding="UTF-8"?>
<svg width="453px" height="530px" viewBox="0 0 453 530" version="1.1" xmlns="http://www.w3.org/2000/svg" xmlns:xlink="http://www.w3.org/1999/xlink">
    <title>Group</title>
    <g id="Page-1" stroke="none" stroke-width="1" fill="none" fill-rule="evenodd">
        <g id="Group">
            <g id="Hand">
                <path d="M365.604127,392.001391 C340.037718,456.564611 287.227815,500.912552 226.208249,501 C182.303301,501 152.277982,486.552364 125.828791,452.647385 C113.533108,436.92535 101.963565,416.774515 90.2163521,392.00034 L124.264579,392.001273 C131.64496,405.952364 138.969025,417.726896 146.484675,427.350781 C167.39008,454.09625 190.612412,465 226.657433,465 C271.282504,464.937464 310.536058,435.91273 333.274774,392.003429 Z M214.43535,43.4169742 C221.923128,14.0681257 245.209006,-4.02661306 269.321242,0.766837554 C293.433478,5.56028816 311.194829,31.8151108 311.185568,62.6506693 L311.185568,77.6574245 C317.818871,73.6546507 325.078692,71.5834771 332.429897,71.596574 C345.576706,71.596574 358.185056,78.1941598 367.481253,89.9379378 C376.777451,101.681716 382,117.609697 382,134.217907 L382,284 L354,284 L354,134.3125 C354,119.652447 344.686892,107.740368 333.127213,107.503592 L332.776239,107.5 C321.05468,107.5 311.552478,119.504366 311.552478,134.3125 L311.552478,232.625 C311.552478,242.49709 305.217677,250.5 297.403304,250.5 C289.588931,250.5 283.25413,242.49709 283.25413,232.625 L283.25413,62.8125 C283.25413,48.0043651 273.751928,36 262.030368,36 C250.308809,36 240.806607,48.0043651 240.806607,62.8125 L240.806607,232.625 C240.806607,242.49709 234.471806,250.5 226.657433,250.5 C218.84306,250.5 212.508259,242.49709 212.508259,232.625 L212.508259,98.5625 C212.508259,83.7543651 203.006057,71.75 191.284498,71.75 C179.562938,71.75 170.060737,83.7543651 170.060737,98.5625 L170.06,284 L129.315,284 L110.86413,246.545156 C110.802261,246.436448 110.744847,246.323854 110.692104,246.207821 L110.616519,246.03125 C104.755739,233.203704 91.7733564,228.807105 81.6195556,236.211172 C71.4657548,243.61524 67.9855734,260.016203 73.8463528,272.84375 C74.0406661,273.263966 74.2177642,273.696515 74.3769468,274.139687 C75.6269872,277.472883 76.8651193,280.760284 78.0920719,284.001967 L46.0382659,284.001045 C36.1720662,255.11978 44.8545073,220.888616 66.952476,204.908655 C90.623223,187.791353 120.793438,198.047072 134.468152,227.859165 L141.23093,241.568763 L141.23093,98.4342882 C141.238758,76.3641836 150.442434,55.9288597 165.456683,44.6447919 C180.470932,33.3607242 199.078559,32.8942604 214.43535,43.4169742 Z" id="Combined-Shape" fill="#D82827" fill-rule="nonzero"></path>
                <rect id="Rectangle" x="0" y="65" width="453" height="453"></rect>
            </g>
            <path d="M355.363636,436.582144 C353.117781,433.14307 350.590085,430.046279 347.827273,427.349016 C347.32626,426.883661 346.659195,426.883661 346.158182,427.349016 C343.400457,430.047403 340.877672,433.144154 338.636364,436.582144 C333.638182,444.192846 331,452.215783 331,459.785502 C331,471.501946 338.163444,481 347,481 C355.836556,481 363,471.501946 363,459.785502 C363,452.215783 360.361818,444.192846 355.363636,436.582144 Z" id="Shape" fill="#D82827" fill-rule="nonzero"></path>
            <path d="M325.034091,473.630226 C323.279517,470.891704 321.304754,468.425741 319.146307,466.27792 C318.754891,465.90736 318.233746,465.90736 317.84233,466.27792 C315.687857,468.426635 313.716931,470.892567 311.965909,473.630226 C308.06108,479.690599 306,486.079235 306,492.106974 C306,501.436734 311.596441,509 318.5,509 C325.403559,509 331,501.436734 331,492.106974 C331,486.079235 328.93892,479.690599 325.034091,473.630226 Z" id="Shape-Copy" fill="#D82827" fill-rule="nonzero"></path>
            <path d="M346.181818,494.630226 C345.058891,491.891704 343.795043,489.425741 342.413636,487.27792 C342.16313,486.90736 341.829597,486.90736 341.579091,487.27792 C340.200229,489.426635 338.938836,491.892567 337.818182,494.630226 C335.319091,500.690599 334,507.079235 334,513.106974 C334,522.436734 337.581722,530 342,530 C346.418278,530 350,522.436734 350,513.106974 C350,507.079235 348.680909,500.690599 346.181818,494.630226 Z" id="Shape-Copy-2" fill="#D82827" fill-rule="nonzero"></path>
            <g id="ENOUGH" transform="translate(28.4837, 305.632)" fill="#D82827" fill-rule="nonzero">
                <polygon id="Path" points="47.437 63.368 47.437 51.175 13.617 51.175 13.617 38.092 42.987 38.092 42.987 25.899 13.617 25.899 13.617 13.261 46.992 13.261 46.992 1.068 1.13686838e-13 1.068 1.13686838e-13 63.368"></polygon>
                <polygon id="Path" points="112.270443 63.368 112.270443 1.068 98.7424427 1.068 98.7424427 39.427 69.5504427 1.068 56.9124427 1.068 56.9124427 63.368 70.4404427 63.368 70.4404427 23.763 100.611443 63.368"></polygon>
                <path d="M187.961885,32.218 L187.961885,32.04 C187.961885,14.329 174.166885,-5.68434189e-14 154.942885,-5.68434189e-14 C135.718885,-5.68434189e-14 121.745885,14.507 121.745885,32.218 L121.745885,32.396 C121.745885,50.107 135.540885,64.436 154.764885,64.436 C173.988885,64.436 187.961885,49.929 187.961885,32.218 Z M173.632885,32.396 C173.632885,43.076 165.978885,51.798 154.942885,51.798 C143.906885,51.798 136.074885,42.898 136.074885,32.218 L136.074885,32.04 C136.074885,21.36 143.728885,12.638 154.764885,12.638 C165.800885,12.638 173.632885,21.538 173.632885,32.218 L173.632885,32.396 Z" id="Shape"></path>
                <path d="M250.748328,36.223 L250.748328,1.068 L237.042328,1.068 L237.042328,36.757 C237.042328,46.636 231.969328,51.709 223.603328,51.709 C215.237328,51.709 210.164328,46.458 210.164328,36.312 L210.164328,1.068 L196.458328,1.068 L196.458328,36.668 C196.458328,55.002 206.693328,64.347 223.425328,64.347 C240.157328,64.347 250.748328,55.091 250.748328,36.223 Z" id="Path"></path>
                <path d="M318.607771,54.557 L318.607771,27.501 L291.551771,27.501 L291.551771,39.338 L305.346771,39.338 L305.346771,48.238 C301.875771,50.73 297.425771,51.976 292.441771,51.976 C281.405771,51.976 273.573771,43.61 273.573771,32.218 L273.573771,32.04 C273.573771,21.449 281.494771,12.638 291.462771,12.638 C298.671771,12.638 302.943771,14.952 307.749771,18.957 L316.382771,8.544 C309.885771,3.026 303.121771,-5.68434189e-14 291.907771,-5.68434189e-14 C273.039771,-5.68434189e-14 259.244771,14.507 259.244771,32.218 L259.244771,32.396 C259.244771,50.819 272.594771,64.436 291.996771,64.436 C303.388771,64.436 312.199771,59.986 318.607771,54.557 Z" id="Path"></path>
                <polygon id="Path" points="381.750214 63.368 381.750214 1.068 368.044214 1.068 368.044214 25.721 342.768214 25.721 342.768214 1.068 329.062214 1.068 329.062214 63.368 342.768214 63.368 342.768214 38.359 368.044214 38.359 368.044214 63.368"></polygon>
            </g>
        </g>
    </g>
</svg>